<svg width="12" height="25" viewBox="0 0 12 25" fill="none" xmlns="http://www.w3.org/2000/svg">
<path d="M6.11219 24.48C4.99219 24.48 3.99219 24.3467 3.11219 24.08C2.25885 23.84 1.57885 23.32 1.07219 22.52C0.565521 21.6933 0.312188 20.4533 0.312188 18.8V5.28C0.312188 3.76 0.565521 2.62667 1.07219 1.88C1.57885 1.13333 2.27219 0.639999 3.15219 0.399999C4.05885 0.159999 5.05885 0.0399985 6.15219 0.0399985C7.29885 0.0399985 8.29885 0.173332 9.15219 0.439998C10.0055 0.679998 10.6722 1.17333 11.1522 1.92C11.6589 2.66666 11.9122 3.78667 11.9122 5.28V9.2H9.99219V5.28C9.99219 4.10667 9.81885 3.24 9.47219 2.68C9.15219 2.12 8.69885 1.74667 8.11219 1.56C7.55219 1.37333 6.89885 1.28 6.15219 1.28C5.40552 1.28 4.73885 1.37333 4.15219 1.56C3.56552 1.74667 3.09885 2.12 2.75219 2.68C2.43219 3.24 2.27219 4.10667 2.27219 5.28V19.24C2.27219 20.4133 2.43219 21.28 2.75219 21.84C3.09885 22.4 3.56552 22.7733 4.15219 22.96C4.73885 23.1467 5.40552 23.24 6.15219 23.24C6.89885 23.24 7.55219 23.1467 8.11219 22.96C8.69885 22.7733 9.15219 22.4 9.47219 21.84C9.81885 21.28 9.99219 20.4133 9.99219 19.24V15.96H11.9122V18.8C11.9122 20.48 11.6589 21.72 11.1522 22.52C10.6722 23.32 9.99219 23.84 9.11219 24.08C8.25885 24.3467 7.25885 24.48 6.11219 24.48Z" fill="#DDDDDD"/>
</svg>
