<svg width="12" height="25" viewBox="0 0 12 25" fill="none" xmlns="http://www.w3.org/2000/svg">
<path d="M5.93547 24.48C4.81547 24.48 3.8288 24.3467 2.97547 24.08C2.12214 23.84 1.44214 23.32 0.935469 22.52C0.428802 21.6933 0.175469 20.4533 0.175469 18.8V5.28C0.175469 3.76 0.428802 2.62667 0.935469 1.88C1.44214 1.13333 2.13547 0.639999 3.01547 0.399999C3.89547 0.159999 4.89547 0.0399985 6.01547 0.0399985C7.13547 0.0399985 8.12214 0.173332 8.97547 0.439998C9.85547 0.679998 10.5355 1.17333 11.0155 1.92C11.5221 2.66666 11.7755 3.78667 11.7755 5.28V18.8C11.7755 20.48 11.5221 21.72 11.0155 22.52C10.5355 23.32 9.85547 23.84 8.97547 24.08C8.09547 24.3467 7.08214 24.48 5.93547 24.48ZM5.97547 23.24C6.7488 23.24 7.41547 23.1467 7.97547 22.96C8.56214 22.7733 9.01547 22.4 9.33547 21.84C9.68214 21.2533 9.85547 20.3867 9.85547 19.24V5.32C9.85547 4.14667 9.68214 3.28 9.33547 2.72C9.01547 2.16 8.56214 1.78667 7.97547 1.6C7.3888 1.41333 6.72214 1.32 5.97547 1.32C5.20214 1.32 4.52214 1.41333 3.93547 1.6C3.3488 1.78667 2.89547 2.16 2.57547 2.72C2.25547 3.28 2.09547 4.14667 2.09547 5.32V19.24C2.09547 20.3867 2.25547 21.2533 2.57547 21.84C2.89547 22.4 3.3488 22.7733 3.93547 22.96C4.52214 23.1467 5.20214 23.24 5.97547 23.24Z" fill="#DDDDDD"/>
</svg>
