<svg width="13" height="24" viewBox="0 0 13 24" fill="none" xmlns="http://www.w3.org/2000/svg">
<path d="M0.458281 24V0.359999H7.57828C8.85828 0.359999 9.91161 0.666666 10.7383 1.28C11.5649 1.89333 11.9783 2.89333 11.9783 4.28V8.12C11.9783 9.53333 11.5516 10.6 10.6983 11.32C9.87161 12.04 8.75162 12.4133 7.33828 12.44V12.4C8.21828 12.4 8.87161 12.6933 9.29828 13.28C9.72495 13.84 10.1116 14.7067 10.4583 15.88L12.9383 24H10.7783L8.49828 16C8.25828 15.2267 7.95162 14.52 7.57828 13.88C7.20495 13.24 6.60495 12.92 5.77828 12.92H2.45828V24H0.458281ZM2.45828 11.48H6.45828C7.79161 11.48 8.72495 11.1733 9.25828 10.56C9.79162 9.94667 10.0583 9.05333 10.0583 7.88V4.6C10.0583 3.58667 9.80495 2.82667 9.29828 2.32C8.79161 1.81333 8.00495 1.56 6.93828 1.56H2.45828V11.48Z" fill="#DDDDDD"/>
</svg>
