<svg width="31" height="68" viewBox="0 0 31 68" fill="none" xmlns="http://www.w3.org/2000/svg">
<path d="M30.3256 19.52H22.9336V15.776C22.9336 11.648 19.5736 8.288 15.4456 8.288C11.3176 8.288 7.95763 11.648 7.95763 15.776V53.12C7.95763 57.248 11.3176 60.512 15.4456 60.512C19.5736 60.512 22.9336 57.248 22.9336 53.12V49.376H30.3256V53.12C30.3256 61.376 23.7016 68 15.4456 68C7.18963 68 0.565625 61.376 0.565625 53.12V15.776C0.565625 7.51999 7.18963 0.895994 15.4456 0.895994C23.7016 0.895994 30.3256 7.51999 30.3256 15.776V19.52Z" fill="#DDDDDD"/>
</svg>
