<svg width="74" height="95" viewBox="0 0 74 95" fill="none" xmlns="http://www.w3.org/2000/svg">
<path d="M40.9255 0.583992C46.5575 0.583992 51.1655 1.43733 54.7495 3.144C58.4188 4.76533 61.6615 6.68533 64.4775 8.904C66.1842 10.184 67.4642 10.3547 68.3175 9.41599C69.2562 8.392 69.8962 6.04533 70.2375 2.376H73.1815C73.0108 5.53333 72.8828 9.37333 72.7975 13.896C72.7122 18.4187 72.6695 24.392 72.6695 31.816H69.7255C69.1282 28.1467 68.5735 25.2453 68.0615 23.112C67.5495 20.8933 66.9095 19.016 66.1415 17.48C65.4588 15.944 64.5202 14.408 63.3255 12.872C60.6802 9.37333 57.3522 6.85599 53.3415 5.31999C49.3308 3.69866 45.1068 2.88799 40.6695 2.88799C36.4882 2.88799 32.6908 3.95466 29.2775 6.088C25.9495 8.136 23.0482 11.1227 20.5735 15.048C18.1842 18.9733 16.3068 23.7093 14.9415 29.256C13.6615 34.8027 13.0215 41.032 13.0215 47.944C13.0215 55.112 13.7468 61.4693 15.1975 67.016C16.6482 72.4773 18.6535 77.0853 21.2135 80.84C23.8588 84.5947 26.9308 87.4533 30.4295 89.416C34.0135 91.2933 37.8535 92.232 41.9495 92.232C45.7895 92.232 49.8002 91.464 53.9815 89.928C58.1628 88.392 61.4482 85.9173 63.8375 82.504C65.7148 80.0293 66.9948 77.3413 67.6775 74.44C68.4455 71.5387 69.1282 67.4853 69.7255 62.28H72.6695C72.6695 70.0453 72.7122 76.3173 72.7975 81.096C72.8828 85.7893 73.0108 89.7573 73.1815 93H70.2375C69.8962 89.3307 69.2988 87.0267 68.4455 86.088C67.6775 85.1493 66.3548 85.2773 64.4775 86.472C61.3202 88.6907 57.9495 90.6533 54.3655 92.36C50.8668 93.9813 46.3442 94.792 40.7975 94.792C32.6908 94.792 25.5655 92.9573 19.4215 89.288C13.3628 85.6187 8.62683 80.328 5.2135 73.416C1.8855 66.504 0.2215 58.184 0.2215 48.456C0.2215 38.8987 1.97083 30.536 5.4695 23.368C8.96817 16.2 13.7468 10.6107 19.8055 6.6C25.9495 2.58933 32.9895 0.583992 40.9255 0.583992Z" fill="black"/>
</svg>
