<svg width="68" height="91" viewBox="0 0 68 91" fill="none" xmlns="http://www.w3.org/2000/svg">
<path d="M64.748 0.375999C64.4067 3.36266 64.1507 6.26399 63.98 9.07999C63.8947 11.896 63.852 14.0293 63.852 15.48C63.852 17.016 63.8947 18.5093 63.98 19.96C64.0653 21.3253 64.1507 22.4773 64.236 23.416H61.292C60.78 18.3813 60.0547 14.4133 59.116 11.512C58.1773 8.52533 56.556 6.43466 54.252 5.24C52.0333 3.95999 48.6627 3.31999 44.14 3.31999H33.516C30.6147 3.31999 28.396 3.57599 26.86 4.088C25.4093 4.51466 24.428 5.496 23.916 7.032C23.404 8.48266 23.148 10.7867 23.148 13.944V77.432C23.148 80.504 23.404 82.808 23.916 84.344C24.428 85.88 25.4093 86.904 26.86 87.416C28.396 87.8427 30.6147 88.056 33.516 88.056H42.86C48.236 88.056 52.2893 87.3307 55.02 85.88C57.836 84.4293 59.8413 82.0827 61.036 78.84C62.316 75.512 63.2547 71.032 63.852 65.4H66.796C66.54 67.704 66.412 70.776 66.412 74.616C66.412 76.2373 66.4547 78.584 66.54 81.656C66.7107 84.6427 66.9667 87.7573 67.308 91C62.956 90.8293 58.0493 90.744 52.588 90.744C47.1267 90.6587 42.2627 90.616 37.996 90.616C36.1187 90.616 33.6867 90.616 30.7 90.616C27.7987 90.616 24.6413 90.6587 21.228 90.744C17.8147 90.744 14.3587 90.7867 10.86 90.872C7.36133 90.872 4.03333 90.9147 0.876 91V88.44C3.77733 88.2693 5.95333 87.928 7.404 87.416C8.94 86.904 9.964 85.88 10.476 84.344C10.988 82.808 11.244 80.504 11.244 77.432V13.944C11.244 10.7867 10.988 8.48266 10.476 7.032C9.964 5.496 8.94 4.472 7.404 3.96C5.95333 3.36266 3.77733 3.02133 0.876 2.936V0.375999C4.03333 0.461332 7.36133 0.546664 10.86 0.631996C14.3587 0.631996 17.8147 0.674662 21.228 0.759995C24.6413 0.759995 27.7987 0.759995 30.7 0.759995C33.6867 0.759995 36.1187 0.759995 37.996 0.759995C41.9213 0.759995 46.3587 0.759995 51.308 0.759995C56.3427 0.674662 60.8227 0.546664 64.748 0.375999ZM42.732 44.152C42.732 44.152 42.732 44.5787 42.732 45.432C42.732 46.2853 42.732 46.712 42.732 46.712H19.308C19.308 46.712 19.308 46.2853 19.308 45.432C19.308 44.5787 19.308 44.152 19.308 44.152H42.732ZM46.444 27.256C46.1027 32.12 45.932 35.832 45.932 38.392C46.0173 40.952 46.06 43.2987 46.06 45.432C46.06 47.5653 46.1027 49.912 46.188 52.472C46.2733 55.032 46.4867 58.744 46.828 63.608H43.884C43.5427 60.8773 43.116 58.232 42.604 55.672C42.1773 53.0267 41.1533 50.8933 39.532 49.272C37.996 47.5653 35.3507 46.712 31.596 46.712V44.152C34.412 44.152 36.5453 43.5973 37.996 42.488C39.532 41.2933 40.6413 39.8 41.324 38.008C42.0067 36.216 42.476 34.3813 42.732 32.504C42.988 30.5413 43.244 28.792 43.5 27.256H46.444Z" fill="black"/>
</svg>
