<svg width="65" height="91" viewBox="0 0 65 91" fill="none" xmlns="http://www.w3.org/2000/svg">
<path d="M64.3105 0.375999C63.9692 3.61867 63.7132 6.776 63.5425 9.848C63.4572 12.8347 63.4145 15.1387 63.4145 16.76C63.4145 18.808 63.4572 20.728 63.5425 22.52C63.6278 24.312 63.7132 25.8907 63.7985 27.256H60.8545C60.2572 21.2827 59.4465 16.5893 58.4225 13.176C57.3985 9.67733 55.6065 7.15999 53.0465 5.62399C50.4865 4.08799 46.5185 3.31999 41.1425 3.31999H33.0785C30.1772 3.31999 27.9585 3.57599 26.4225 4.088C24.9718 4.51466 23.9905 5.496 23.4785 7.032C22.9665 8.48266 22.7105 10.7867 22.7105 13.944V77.432C22.7105 80.504 23.0092 82.808 23.6065 84.344C24.2892 85.88 25.5692 86.904 27.4465 87.416C29.3238 87.928 32.0545 88.2693 35.6385 88.44V91C33.4198 90.8293 30.6038 90.744 27.1905 90.744C23.7772 90.6587 20.3212 90.616 16.8225 90.616C13.4945 90.616 10.3798 90.6587 7.4785 90.744C4.57717 90.744 2.2305 90.8293 0.4385 91V88.44C3.33983 88.2693 5.51583 87.928 6.9665 87.416C8.5025 86.904 9.5265 85.88 10.0385 84.344C10.5505 82.808 10.8065 80.504 10.8065 77.432V13.944C10.8065 10.7867 10.5505 8.48266 10.0385 7.032C9.5265 5.496 8.5025 4.472 6.9665 3.96C5.51583 3.36266 3.33983 3.02133 0.4385 2.936V0.375999C3.59583 0.461332 6.92383 0.546664 10.4225 0.631996C13.9212 0.631996 17.3772 0.674662 20.7905 0.759995C24.2038 0.759995 27.3612 0.759995 30.2625 0.759995C33.2492 0.759995 35.6812 0.759995 37.5585 0.759995C41.4838 0.759995 45.9212 0.759995 50.8705 0.759995C55.9052 0.674662 60.3852 0.546664 64.3105 0.375999ZM44.4705 45.432C44.4705 45.432 44.4705 45.8587 44.4705 46.712C44.4705 47.5653 44.4705 47.992 44.4705 47.992H18.8705C18.8705 47.992 18.8705 47.5653 18.8705 46.712C18.8705 45.8587 18.8705 45.432 18.8705 45.432H44.4705ZM46.9025 28.536C46.5612 33.4 46.3905 37.112 46.3905 39.672C46.4758 42.232 46.5185 44.5787 46.5185 46.712C46.5185 48.8453 46.5612 51.192 46.6465 53.752C46.7318 56.312 46.9452 60.024 47.2865 64.888H44.3425C44.0012 62.1573 43.5745 59.512 43.0625 56.952C42.6358 54.3067 41.6118 52.1733 39.9905 50.552C38.4545 48.8453 35.8092 47.992 32.0545 47.992V45.432C34.8705 45.432 37.0038 44.8773 38.4545 43.768C39.9905 42.5733 41.0998 41.08 41.7825 39.288C42.4652 37.496 42.9345 35.6613 43.1905 33.784C43.4465 31.8213 43.7025 30.072 43.9585 28.536H46.9025Z" fill="black"/>
</svg>
