<svg width="82" height="92" viewBox="0 0 82 92" fill="none" xmlns="http://www.w3.org/2000/svg">
<path d="M81.0725 0.375999V2.936C78.1712 3.02133 75.9525 3.448 74.4165 4.216C72.9658 4.984 71.9845 6.22133 71.4725 7.92799C70.9605 9.63466 70.7045 12.0667 70.7045 15.224V91.64C70.1925 91.64 69.6805 91.64 69.1685 91.64C68.7418 91.64 68.2725 91.64 67.7605 91.64L14.0005 8.56799V76.152C14.0005 79.224 14.2565 81.656 14.7685 83.448C15.3658 85.1547 16.4752 86.392 18.0965 87.16C19.8032 87.8427 22.3205 88.2693 25.6485 88.44V91C24.1125 90.8293 22.1072 90.744 19.6325 90.744C17.1578 90.6587 14.8112 90.616 12.5925 90.616C10.4592 90.616 8.28317 90.6587 6.0645 90.744C3.93117 90.744 2.13917 90.8293 0.6885 91V88.44C3.58983 88.2693 5.76583 87.8427 7.2165 87.16C8.7525 86.392 9.7765 85.1547 10.2885 83.448C10.8005 81.656 11.0565 79.224 11.0565 76.152V13.944C11.0565 10.7867 10.8005 8.48266 10.2885 7.032C9.7765 5.496 8.7525 4.472 7.2165 3.96C5.76583 3.36266 3.58983 3.02133 0.6885 2.936V0.375999C2.13917 0.461332 3.93117 0.546664 6.0645 0.631996C8.28317 0.717328 10.4592 0.759995 12.5925 0.759995C14.4698 0.759995 16.2618 0.717328 17.9685 0.631996C19.6752 0.546664 21.2112 0.461332 22.5765 0.375999L67.7605 70.008V15.224C67.7605 12.0667 67.4618 9.63466 66.8645 7.92799C66.3525 6.22133 65.2432 4.984 63.5365 4.216C61.9152 3.448 59.4405 3.02133 56.1125 2.936V0.375999C57.6485 0.461332 59.6538 0.546664 62.1285 0.631996C64.6885 0.717328 67.0352 0.759995 69.1685 0.759995C71.3872 0.759995 73.5632 0.717328 75.6965 0.631996C77.9152 0.546664 79.7072 0.461332 81.0725 0.375999Z" fill="black"/>
</svg>
