<svg width="83" height="95" viewBox="0 0 83 95" fill="none" xmlns="http://www.w3.org/2000/svg">
<path d="M41.5505 0.583992C49.6572 0.583992 56.7398 2.41866 62.7985 6.088C68.9425 9.75733 73.6785 15.048 77.0065 21.96C80.4198 28.7867 82.1265 37.1067 82.1265 46.92C82.1265 56.4773 80.3772 64.84 76.8785 72.008C73.4652 79.176 68.6865 84.7653 62.5425 88.776C56.3985 92.7867 49.3585 94.792 41.4225 94.792C33.3158 94.792 26.1905 92.9573 20.0465 89.288C13.9878 85.6187 9.25183 80.328 5.8385 73.416C2.5105 66.504 0.8465 58.184 0.8465 48.456C0.8465 38.8987 2.59583 30.536 6.0945 23.368C9.59317 16.2 14.3718 10.6107 20.4305 6.6C26.5745 2.58933 33.6145 0.583992 41.5505 0.583992ZM41.0385 2.88799C35.4918 2.88799 30.6705 4.80799 26.5745 8.64799C22.4785 12.488 19.2785 17.7787 16.9745 24.52C14.7558 31.2613 13.6465 39.0693 13.6465 47.944C13.6465 56.9893 14.8838 64.8827 17.3585 71.624C19.9185 78.28 23.3318 83.4427 27.5985 87.112C31.9505 90.696 36.7292 92.488 41.9345 92.488C47.4812 92.488 52.3025 90.568 56.3985 86.728C60.4945 82.888 63.6518 77.5973 65.8705 70.856C68.1745 64.0293 69.3265 56.2213 69.3265 47.432C69.3265 38.3013 68.0465 30.408 65.4865 23.752C63.0118 17.096 59.6412 11.976 55.3745 8.392C51.1078 4.72266 46.3292 2.88799 41.0385 2.88799Z" fill="black"/>
</svg>
