<svg width="31" height="68" viewBox="0 0 31 68" fill="none" xmlns="http://www.w3.org/2000/svg">
<path d="M15.4456 0.895994C23.7016 0.895994 30.3256 7.51999 30.3256 15.776V23.264C30.3256 27.008 28.9816 30.464 26.5816 33.152C26.1976 33.632 25.8136 34.016 25.3336 34.4C25.1416 34.592 25.0456 34.688 24.9496 34.784C24.4696 35.168 23.9896 35.456 23.5096 35.84C23.2216 36.032 22.9336 36.128 22.7416 36.32L30.3256 68H22.6456L15.9256 40.16L7.95763 44.768V68H0.565625V0.895994H15.4456ZM15.4456 8.288H7.95763V36.128L14.1016 32.576L17.2696 30.848L17.9416 30.368L18.5176 30.08L18.7096 29.984L19.5736 29.408C21.5896 28.064 22.9336 25.856 22.9336 23.264V15.776C22.9336 11.744 19.6696 8.48 15.6376 8.288C15.5416 8.288 15.5416 8.288 15.4456 8.288Z" fill="#DDDDDD"/>
</svg>
