<svg width="80" height="93" viewBox="0 0 80 93" fill="none" xmlns="http://www.w3.org/2000/svg">
<path d="M0.376 0.375999C2.168 0.461332 4.51467 0.546664 7.416 0.631996C10.3173 0.717328 13.176 0.759995 15.992 0.759995C20.0027 0.759995 23.8427 0.717328 27.512 0.631996C31.1813 0.546664 33.784 0.503998 35.32 0.503998C42.232 0.503998 47.9493 1.48533 52.472 3.448C57.08 5.41066 60.4933 8.09866 62.712 11.512C65.016 14.84 66.168 18.5947 66.168 22.776C66.168 25.336 65.656 28.0667 64.632 30.968C63.608 33.8693 61.816 36.6 59.256 39.16C56.7813 41.72 53.368 43.8533 49.016 45.56C44.664 47.1813 39.16 47.992 32.504 47.992H20.216V45.432H31.224C37.2827 45.432 41.8907 44.4933 45.048 42.616C48.2907 40.6533 50.4667 38.0933 51.576 34.936C52.7707 31.6933 53.368 28.1093 53.368 24.184C53.368 17.4427 51.7467 12.2373 48.504 8.56799C45.3467 4.81333 39.8853 2.936 32.12 2.936C28.1947 2.936 25.6347 3.66133 24.44 5.112C23.2453 6.56266 22.648 9.50666 22.648 13.944V77.432C22.648 80.504 22.904 82.808 23.416 84.344C23.928 85.88 24.9093 86.904 26.36 87.416C27.896 87.928 30.1147 88.2693 33.016 88.44V91C31.0533 90.8293 28.5787 90.744 25.592 90.744C22.6907 90.6587 19.7467 90.616 16.76 90.616C13.432 90.616 10.3173 90.6587 7.416 90.744C4.51467 90.744 2.168 90.8293 0.376 91V88.44C3.27733 88.2693 5.45333 87.928 6.904 87.416C8.44 86.904 9.464 85.88 9.976 84.344C10.488 82.808 10.744 80.504 10.744 77.432V13.944C10.744 10.7867 10.488 8.48266 9.976 7.032C9.464 5.496 8.44 4.472 6.904 3.96C5.45333 3.36266 3.27733 3.02133 0.376 2.936V0.375999ZM20.728 45.816C25.336 45.9867 28.9627 46.2 31.608 46.456C34.2533 46.6267 36.3867 46.7973 38.008 46.968C39.7147 47.1387 41.336 47.352 42.872 47.608C48.5893 48.5467 52.6853 50.296 55.16 52.856C57.72 55.3307 59.5973 59.2133 60.792 64.504L63.992 77.56C64.8453 81.3147 65.6987 84.0453 66.552 85.752C67.4907 87.3733 68.8987 88.1413 70.776 88.056C72.2267 87.9707 73.4213 87.5013 74.36 86.648C75.384 85.7947 76.4507 84.6427 77.56 83.192L79.48 84.6C77.688 87.2453 75.8107 89.2933 73.848 90.744C71.9707 92.1093 69.2827 92.792 65.784 92.792C62.6267 92.792 59.8533 91.8533 57.464 89.976C55.0747 88.0987 53.2827 84.4293 52.088 78.968L49.272 66.168C48.504 62.4987 47.608 59.3413 46.584 56.696C45.6453 53.9653 44.28 51.832 42.488 50.296C40.7813 48.76 38.2213 47.992 34.808 47.992H20.984L20.728 45.816Z" fill="black"/>
</svg>
