<svg width="80" height="91" viewBox="0 0 80 91" fill="none" xmlns="http://www.w3.org/2000/svg">
<path d="M30.1695 0.375999V3.064C25.9028 3.064 23.3002 3.53333 22.3615 4.47199C21.4228 5.32533 21.5508 6.73333 22.7455 8.696L70.6175 81.912C72.2388 84.3867 73.6042 86.0507 74.7135 86.904C75.8228 87.672 77.3162 88.1413 79.1935 88.312V91C78.0842 90.9147 76.5055 90.8293 74.4575 90.744C72.4948 90.5733 70.4042 90.488 68.1855 90.488C64.7722 90.488 61.3162 90.5733 57.8175 90.744C54.4042 90.8293 51.8442 90.9147 50.1375 91V88.312C54.4042 88.312 57.1348 88.056 58.3295 87.544C59.5242 87.032 59.5242 85.8373 58.3295 83.96L9.6895 9.464C8.06817 6.98933 6.70283 5.32533 5.5935 4.47199C4.5695 3.61866 3.07617 3.14933 1.1135 3.064V0.375999C2.22283 0.461332 3.8015 0.58933 5.8495 0.759995C7.8975 0.845327 9.98817 0.887993 12.1215 0.887993C15.6202 0.887993 18.9055 0.845327 21.9775 0.759995C25.0495 0.58933 27.7802 0.461332 30.1695 0.375999ZM37.2095 44.28C37.2095 44.28 37.2948 44.5787 37.4655 45.176C37.6362 45.688 37.8068 46.2427 37.9775 46.84C38.2335 47.352 38.3615 47.608 38.3615 47.608L22.6175 71.032C19.5455 75.64 17.9242 79.1813 17.7535 81.656C17.6682 84.1307 18.6495 85.88 20.6975 86.904C22.7455 87.8427 25.5615 88.3547 29.1455 88.44V91C27.9508 90.9147 26.5855 90.872 25.0495 90.872C23.5135 90.7867 21.9348 90.744 20.3135 90.744C18.7775 90.6587 17.2415 90.616 15.7055 90.616C14.2548 90.616 12.9748 90.616 11.8655 90.616C9.73217 90.616 7.68417 90.6587 5.7215 90.744C3.84417 90.744 2.2655 90.8293 0.9855 91V88.44C3.63083 88.0133 6.1055 86.8187 8.4095 84.856C10.7135 82.8933 13.0602 80.1627 15.4495 76.664L37.2095 44.28ZM76.5055 0.375999V2.936C73.8602 3.27733 71.3855 4.472 69.0815 6.52C66.7775 8.48266 64.4308 11.2133 62.0415 14.712L41.4335 45.432C41.4335 45.432 41.3055 44.8773 41.0495 43.768C40.7935 42.6587 40.6655 42.104 40.6655 42.104L55.2575 20.344C58.3295 15.736 60.1215 12.1947 60.6335 9.71999C61.1455 7.24533 60.5482 5.53866 58.8415 4.6C57.1348 3.576 54.4895 3.02133 50.9055 2.936V0.375999C52.5268 0.461332 54.1908 0.546664 55.8975 0.631996C57.6042 0.631996 59.2682 0.674662 60.8895 0.759995C62.5962 0.759995 64.1748 0.759995 65.6255 0.759995C67.8442 0.759995 69.8922 0.717328 71.7695 0.631996C73.6468 0.546664 75.2255 0.461332 76.5055 0.375999Z" fill="black"/>
</svg>
